<svg width="24" height="24" viewBox="0 0 24 24" fill="none" xmlns="http://www.w3.org/2000/svg">
<mask id="mask0_1922_6836" style="mask-type:alpha" maskUnits="userSpaceOnUse" x="0" y="0" width="24" height="24">
<rect width="24" height="24" fill="#D9D9D9"/>
</mask>
<g mask="url(#mask0_1922_6836)">
<path d="M9.54922 14.3L17.5742 6.27505C17.8909 5.95838 18.2659 5.80005 18.6992 5.80005C19.1326 5.80005 19.5076 5.95838 19.8242 6.27505C20.1409 6.59172 20.2992 6.96672 20.2992 7.40005C20.2992 7.83338 20.1409 8.20838 19.8242 8.52505L10.6742 17.675C10.3576 17.9917 9.98255 18.15 9.54922 18.15C9.11589 18.15 8.74089 17.9917 8.42422 17.675L4.17422 13.425C3.85755 13.1084 3.69922 12.7334 3.69922 12.3C3.69922 11.8667 3.85755 11.4917 4.17422 11.175C4.49089 10.8584 4.86589 10.7 5.29922 10.7C5.73255 10.7 6.10755 10.8584 6.42422 11.175L9.54922 14.3Z" fill="#22C55E"/>
</g>
</svg>
